The commentary during qualifying is from Sky F1 with Martin Brundle and team and local commentary is by Greg Dust and team.


Duration : 1h 36mn

Bit rate : 955 Kbps

 Width : 960 pixels

 Height : 540 pixels

 Display aspect ratio : 16:9

 Frame rate : 25.000 fps

Round 5 of the 2013 Formula 1 World Championship from the Circuit de Catalunya in Barcelona

 This is a live stream capture of my feed, 1.5hrs of the coverage from Spain on Saturday. Adverts have been removed.

 This contains the full Qualifying including local buildup with pre-quali interviews and post quali interviews with top 3 qualifyers, and debrief by local hosts.

 Local commentary by Greg Rust, Daryl Beattie, with main commentary by Martin Brundle, David Croft, Natalie Pinkham and Ted Kravitz.

Technical Information:

Video

ID                             : 0
Format                         : MPEG-4 Visual
Format profile                 : Advanced Simple@L5
Format settings, BVOP          : 2
Format settings, QPel          : No
Format settings, GMC           : No warppoints
Format settings, Matrix        : Default (H.263)
Muxing mode                    : Packed bitstream
Codec ID                       : XVID
Codec ID/Hint                  : XviD
Duration                       : 1h 40mn
Bit rate                       : 911 Kbps
Width                          : 608 pixels
Height                         : 336 pixels
Display aspect ratio           : 16:9
Frame rate                     : 25.000 fps
Color space                    : YUV
Chroma subsampling             : 4:2:0
Bit depth                      : 8 bits
Scan type                      : Progressive
Compression mode               : Lossy
Bits/(Pixel*Frame)             : 0.178
Stream size                    : 657 MiB (83%)
Writing library                : XviD 1.2.1 (UTC 2008-12-04)

Audio

ID                             : 1
Format                         : MPEG Audio
Format version                 : Version 1
Format profile                 : Layer 3
Mode                           : Joint stereo
Mode extension                 : MS Stereo
Codec ID                       : 55
Codec ID/Hint                  : MP3
Duration                       : 1h 40mn
Bit rate mode                  : Constant
Bit rate                       : 128 Kbps
Channel(s)                     : 2 channels
Sampling rate                  : 48.0 KHz
Compression mode               : Lossy
Stream size                    : 92.3 MiB (12%)
Alignment                      : Aligned on interleaves


Screens:
 
http://i.imgur.com/vjVfzNs.jpg
 
http://i.imgur.com/sIKkQrW.jpg
 
http://i.imgur.com/LX4Ogg4.jpg